<?xml version="1.0" standalone="no"?>
<!DOCTYPE svg PUBLIC "-//W3C//DTD SVG 20010904//EN"
 "http://www.w3.org/TR/2001/REC-SVG-20010904/DTD/svg10.dtd">
<svg version="1.0" xmlns="http://www.w3.org/2000/svg"
 width="100.000000pt" height="100.000000pt" viewBox="0 0 100.000000 100.000000"
 preserveAspectRatio="xMidYMid meet">
<metadata>
Created by potrace 1.11, written by Peter Selinger 2001-2013
</metadata>
<g transform="translate(0.000000,100.000000) scale(0.100000,-0.100000)"
fill="#000000" stroke="none">
<path d="M211 781 c-6 -11 -11 -78 -11 -155 l0 -136 -30 0 c-37 0 -53 -28 -25
-44 49 -29 55 -43 55 -129 0 -94 12 -121 51 -115 24 3 24 4 27 121 l3 117 59
0 60 0 0 -103 c0 -115 10 -141 51 -135 l24 3 0 295 0 295 -24 3 c-44 7 -51
-19 -51 -170 l0 -138 -60 0 -59 0 -3 153 -3 152 -27 3 c-18 2 -30 -3 -37 -17z"/>
<path d="M524 785 c-11 -28 7 -35 102 -35 l94 0 0 -231 c0 -140 -4 -238 -10
-250 -12 -22 -83 -27 -97 -6 -4 6 -10 48 -13 92 -5 76 -6 80 -29 83 -15 3 -30
-3 -38 -14 -17 -23 -18 -195 -1 -212 17 -17 239 -17 256 0 9 9 12 79 12 255 0
262 -1 256 55 289 12 6 16 16 12 27 -6 15 -26 17 -172 17 -136 0 -167 -3 -171
-15z"/>
</g>
</svg>
